<?xml version="1.0" encoding="UTF-8"?>
<svg version="1.1" xmlns="http://www.w3.org/2000/svg" width="512" height="512">
<path d="M0 0 C7.57545746 5.43093457 12.44049316 12.93729169 17.70214844 20.49316406 C20.22393424 24.09151182 22.80041625 27.65026882 25.375 31.2109375 C25.91979004 31.96544189 26.46458008 32.71994629 27.02587891 33.49731445 C31.60197631 39.82458508 36.23362764 46.11001365 40.8737793 52.39038086 C46.05899412 59.41581443 51.18128418 66.48563626 56.28515625 73.5703125 C56.76654053 74.23498535 57.2479248 74.8996582 57.74389648 75.58447266 C58.64293224 76.84665084 59.52382186 78.12201858 60.38305664 79.41162109 C63.20444545 83.59593685 66.36800342 86.649126 70.4375 89.6484375 C71.67566098 90.58959309 72.91258903 91.53237236 74.1484375 92.4765625 C75.11668457 93.21229492 75.11668457 93.21229492 76.10449219 93.96289062 C80.32212378 97.22039439 84.41801692 100.63145368 88.53051758 104.02001953 C91.63006315 106.55771034 94.74667832 108.99179274 98.03515625 111.28125 C101.125 113.5234375 101.125 113.5234375 102.125 115.5234375 C102.49919744 120.30303742 101.56003768 123.62164303 99.71875 128.015625 C98.97431641 129.81386719 98.97431641 129.81386719 98.21484375 131.6484375 C97.68512493 132.8985346 97.15517412 134.14853342 96.625 135.3984375 C96.09408331 136.67147141 95.56412551 137.94490567 95.03515625 139.21875 C93.74114429 142.32437871 92.43750717 145.42559056 91.125 148.5234375 C92.0735083 148.50579346 93.0220166 148.48814941 93.99926758 148.4699707 C98.09703023 148.54006443 99.61844057 149.53893107 102.47644043 152.34414673 C108.14743368 159.84083868 107.98281701 172.64719751 109.27169228 181.84899521 C114.32647139 217.57147791 119.70750786 250.55401735 136.70068359 282.79101562 C140.54266464 290.16003922 143.74391007 297.81967936 147.01858521 305.4526062 C148.83812097 309.6804234 150.69358406 313.89236661 152.546875 318.10546875 C152.91478653 318.94356583 153.28269806 319.7816629 153.66175842 320.64515686 C156.51964477 327.1546131 159.39059529 333.65825598 162.265625 340.16015625 C162.6939563 341.12885651 163.1222876 342.09755676 163.56359863 343.09561157 C165.62692713 347.76098094 167.69156812 352.4257651 169.7578125 357.08984375 C173.05646342 364.53952936 176.35116999 371.99105453 179.5859375 379.46875 C180.27888916 381.06807373 180.27888916 381.06807373 180.98583984 382.69970703 C185.55762354 394.03216528 185.35830829 406.08004231 181.125 417.5234375 C174.57223124 430.34112729 166.08513107 436.93526893 153.125 442.5234375 C150.02899846 443.47442765 147.22922299 443.65599505 143.99609375 443.66723633 C142.97523682 443.67091721 141.95437988 443.67459808 140.90258789 443.6783905 C139.24924438 443.67323174 139.24924438 443.67323174 137.5625 443.66796875 C136.40935303 443.66561722 135.25620605 443.66326569 134.06811523 443.6608429 C122.53233031 443.59150131 111.03536296 443.07501846 99.52050781 442.40649414 C96.12616672 442.21100469 92.73123208 442.03158539 89.3359375 441.85351562 C77.89877104 441.2265362 66.52197182 440.3491889 55.140625 439.046875 C54.09914307 438.92773239 53.05766113 438.80858978 51.98461914 438.68583679 C25.05072177 435.44187499 -1.74931849 427.47900139 -25.78320312 414.83935547 C-27.08354492 414.16670654 -27.08354492 414.16670654 -28.41015625 413.48046875 C-29.156604 413.07803955 -29.90305176 412.67561035 -30.67211914 412.26098633 C-33.47829751 411.32144683 -35.06485878 411.67791078 -37.875 412.5234375 C-40.27071929 413.7702179 -42.60016696 415.0523908 -44.9375 416.3984375 C-53.50354756 421.12759869 -61.43576908 423.40350089 -71.25 423.8984375 C-76.67772705 424.24383831 -78.93179607 425.66985184 -82.875 429.5234375 C-92.32746233 435.61778821 -102.96756146 435.83284187 -113.890625 435.82421875 C-115.105224 435.82850388 -116.319823 435.832789 -117.57122803 435.83720398 C-120.12267435 435.84291666 -122.67413695 435.8434703 -125.22558594 435.83911133 C-129.12723324 435.83593568 -133.02813284 435.85950411 -136.9296875 435.88476562 C-139.41666571 435.88703736 -141.90364596 435.8877427 -144.390625 435.88671875 C-145.55321838 435.8959285 -146.71581177 435.90513824 -147.91363525 435.91462708 C-154.98725409 435.87414674 -159.67442322 435.2915039 -165.1875 430.5234375 C-168.35209384 426.77280776 -167.96389412 423.23482586 -167.875 418.5234375 C-168.47183594 418.38808594 -169.06867188 418.25273437 -169.68359375 418.11328125 C-188.41201121 413.46596221 -213.04679954 403.65737484 -225 387.8359375 C-229.43501762 380.0007397 -229.87749526 372.37733373 -228.875 363.5234375 C-226.21671983 355.29317504 -221.50122266 347.75106281 -213.87251377 343.37466049 C-208.29963173 340.76798048 -203.70945651 339.93950774 -197.59155273 339.97753906 C-196.71241714 339.96720139 -195.83328156 339.95686371 -194.92750549 339.94621277 C-192.05434357 339.91698125 -189.18189212 339.91528978 -186.30859375 339.9140625 C-184.30362114 339.89906757 -182.29866082 339.88233767 -180.29371643 339.86395264 C-175.04128424 339.82041448 -169.78901866 339.80031005 -164.53643799 339.78521729 C-159.16677047 339.76559733 -153.79728159 339.72363285 -148.42773438 339.68359375 C-137.91021153 339.60843828 -127.39272896 339.5580581 -116.875 339.5234375 C-117.56089203 338.50234894 -118.24678406 337.48126038 -118.95346069 336.42922974 C-119.86277425 335.07152775 -120.77200016 333.71376708 -121.68115234 332.35595703 C-122.13211777 331.68510574 -122.58308319 331.01425446 -123.04771423 330.32307434 C-126.49927054 325.16258107 -129.65533599 319.92043234 -132.5 314.3984375 C-132.95528076 313.51647705 -133.41056152 312.6345166 -133.87963867 311.72583008 C-142.9977854 293.66411557 -149.5461468 274.13545763 -152.59375 254.09375 C-153.89628354 245.71297499 -156.25617354 240.96747333 -161.65234375 234.421875 C-168.66981926 225.27079094 -172.11573684 212.00517682 -170.875 200.5234375 C-168.17819992 182.05375625 -160.14587899 169.65124694 -145.29541016 158.54541016 C-144.12404891 157.67779684 -142.95198054 156.81113758 -141.77929688 155.9453125 C-138.20578385 153.27708944 -134.70203322 150.51857495 -131.1875 147.7734375 C-129.65903438 146.58310189 -128.13038619 145.39300068 -126.6015625 144.203125 C-125.82973633 143.60209961 -125.05791016 143.00107422 -124.26269531 142.38183594 C-121.8089398 140.47202132 -119.35387617 138.5639 -116.8984375 136.65625 C-116.08850342 136.02686523 -115.27856934 135.39748047 -114.4440918 134.74902344 C-112.89626694 133.54630561 -111.3482626 132.34381871 -109.80004883 131.14160156 C-109.0964624 130.5947168 -108.39287598 130.04783203 -107.66796875 129.484375 C-107.0546167 129.00790527 -106.44126465 128.53143555 -105.80932617 128.04052734 C-105.17099854 127.5398877 -104.5326709 127.03924805 -103.875 126.5234375 C-102.9883667 125.96035889 -102.1017334 125.39728027 -101.18823242 124.81713867 C-98.5647125 122.21576984 -98.23460771 120.6556892 -98.07766724 117.01609802 C-98.07524017 116.30566849 -98.07281311 115.59523895 -98.0703125 114.86328125 C-98.05604218 114.11816788 -98.04177185 113.3730545 -98.02706909 112.60536194 C-98.00616657 111.02779822 -97.99859371 109.45000927 -98.00341797 107.87231445 C-98.00004077 105.48970126 -97.92243354 103.11733724 -97.83984375 100.73632812 C-97.72150654 92.86421917 -98.01990876 87.5292461 -103.2421875 81.21484375 C-104.0347998 80.41377197 -104.82741211 79.6127002 -105.64404297 78.78735352 C-109.09094254 75.28953127 -110.71314551 72.60618826 -111.44140625 67.734375 C-111.20210801 61.62152292 -106.81199933 57.52742006 -103.05273438 53.0546875 C-99.77649074 48.95390799 -99.77649074 48.95390799 -98.86767578 43.93261719 C-99.20864048 41.32079636 -99.20864048 41.32079636 -99.83813477 38.89599609 C-99.875 36.5234375 -99.875 36.5234375 -98.63598633 33.9387207 C-94.41078407 30.24255606 -89.69463828 29.43161229 -84.3203125 28.10546875 C-81.9905752 27.48488736 -79.66115758 26.86310488 -77.33203125 26.24023438 C-73.66661436 25.28178701 -69.99901049 24.33568871 -66.32470703 23.41186523 C-62.77160916 22.51057882 -59.23403759 21.5614041 -55.6953125 20.60546875 C-54.60139191 20.34466019 -53.50747131 20.08385162 -52.38040161 19.81513977 C-46.5559262 18.20889866 -43.50395734 16.82521966 -40.38232422 11.5144043 C-39.97779022 10.6687944 -39.57325623 9.82318451 -39.15646362 8.95195007 C-36.40095056 3.7299539 -30.67132759 -1.0068295 -25.109375 -3.03515625 C-16.4027162 -4.75517801 -7.72541147 -4.59966933 0 0 Z M22.125 107.5234375 C17.44304033 113.97613832 14.98051538 119.25537083 14.9375 127.2734375 C14.92332031 128.46453125 14.90914063 129.655625 14.89453125 130.8828125 C14.98780568 134.51637532 14.98780568 134.51637532 16.11328125 137.83984375 C20.01479208 152.04495846 17.39552174 167.23725444 10.25 179.8359375 C9.23349638 181.41492328 8.19321476 182.97896577 7.125 184.5234375 C6.68542969 185.16023438 6.24585938 185.79703125 5.79296875 186.453125 C-1.08067346 195.36707022 -12.94091866 201.33120553 -23.875 203.5234375 C-26.56331379 203.67396159 -29.23162755 203.77948866 -31.921875 203.83984375 C-32.69307678 203.86062485 -33.46427856 203.88140594 -34.2588501 203.90281677 C-36.71414572 203.96802322 -39.16954521 204.02706234 -41.625 204.0859375 C-43.29297935 204.12915024 -44.96094832 204.1727654 -46.62890625 204.21679688 C-50.71083196 204.32367486 -54.79286182 204.42502316 -58.875 204.5234375 C-60.45501869 210.63983258 -62.01995301 216.75994695 -63.57470703 222.8828125 C-64.10480918 224.96311573 -64.63829472 227.04255997 -65.17529297 229.12109375 C-65.94880797 232.11756744 -66.70990039 235.11697082 -67.46875 238.1171875 C-67.70936157 239.03834351 -67.94997314 239.95949951 -68.19787598 240.90856934 C-70.68873395 250.86516697 -70.67653514 260.17674896 -65.875 269.5234375 C-62.09964985 275.45595678 -57.78551127 281.0115416 -53.43725586 286.53149414 C-51.875 288.5234375 -51.875 288.5234375 -50.43066406 290.71533203 C-48.54743906 292.90415255 -47.58937136 293.14337839 -44.76953125 293.54296875 C-43.95863037 293.67413086 -43.14772949 293.80529297 -42.31225586 293.94042969 C-41.44608643 294.07094727 -40.57991699 294.20146484 -39.6875 294.3359375 C-19.94635984 297.82124034 -2.53385506 307.19356489 9.4375 323.71484375 C15.60316773 332.89791692 15.60316773 332.89791692 17.14512634 337.70115662 C19.35532487 343.71688398 21.44005662 348.01434946 27.35168457 350.96214294 C32.82288508 353.25625902 38.47968839 354.95537965 44.15234375 356.671875 C46.22891835 357.34227618 48.30398273 358.0173717 50.37757874 358.69692993 C55.8098925 360.46339342 61.26022074 362.16578549 66.71691895 363.85516357 C72.29308507 365.5940151 77.84964292 367.39333019 83.40820312 369.1875 C94.29555966 372.69191886 105.20292947 376.12889183 116.125 379.5234375 C116.455 378.8634375 116.785 378.2034375 117.125 377.5234375 C116.3668137 375.50246088 116.3668137 375.50246088 115.1328125 373.24609375 C114.67922363 372.35414307 114.22563477 371.46219238 113.75830078 370.54321289 C113.01169189 369.07936157 113.01169189 369.07936157 112.25 367.5859375 C97.10567735 336.81810306 91.96657065 305.47274688 88.82324219 271.72387695 C88.72450302 270.6882814 88.62576385 269.65268585 88.52403259 268.58570862 C88.3376091 266.61847138 88.15805519 264.65056749 87.98634338 262.68199158 C87.90230759 261.79790115 87.81827179 260.91381073 87.73168945 260.00292969 C87.66238724 259.23148621 87.59308502 258.46004272 87.52168274 257.66522217 C86.9505874 254.5817423 86.00614341 252.2628439 83.58447266 250.23071289 C82.9919873 249.86453857 82.39950195 249.49836426 81.7890625 249.12109375 C81.13679687 248.70537109 80.48453125 248.28964844 79.8125 247.86132812 C79.131875 247.44044922 78.45125 247.01957031 77.75 246.5859375 C70.17872868 241.89377989 65.48182903 237.32339624 63.125 228.5234375 C61.98917054 219.92358586 66.25350567 212.0868162 70.125 204.6484375 C76.53196448 192.19135214 78.24864616 180.00066685 78.64257812 166.22265625 C78.67673828 165.32160156 78.71089844 164.42054688 78.74609375 163.4921875 C78.78367798 162.27692383 78.78367798 162.27692383 78.82202148 161.03710938 C79.1855781 158.02084915 80.09079033 155.37236317 81.125 152.5234375 C77.7085227 149.91902232 74.29178518 147.31494875 70.875 144.7109375 C69.90691406 143.97294922 68.93882812 143.23496094 67.94140625 142.47460938 C67.00683594 141.76240234 66.07226562 141.05019531 65.109375 140.31640625 C64.25053711 139.6618042 63.39169922 139.00720215 62.50683594 138.33276367 C61.32782715 137.43714722 61.32782715 137.43714722 60.125 136.5234375 C59.40344727 135.95020752 58.68189453 135.37697754 57.93847656 134.78637695 C56.21978205 133.33294135 56.21978205 133.33294135 54.125 133.5234375 C53.8571167 132.95069092 53.5892334 132.37794434 53.31323242 131.7878418 C52.08255419 129.44254889 50.68886418 127.42073415 49.11328125 125.29296875 C48.51966797 124.48923828 47.92605469 123.68550781 47.31445312 122.85742188 C46.69505859 122.02533203 46.07566406 121.19324219 45.4375 120.3359375 C44.83744141 119.52318359 44.23738281 118.71042969 43.61914062 117.87304688 C40.52327098 113.69312406 37.39507914 109.53829552 34.23046875 105.41015625 C33.6583667 104.66338623 33.08626465 103.91661621 32.49682617 103.1472168 C32.04412354 102.61136963 31.5914209 102.07552246 31.125 101.5234375 C27.92443487 101.5234375 24.31111914 105.49289983 22.125 107.5234375 Z " fill="#FE8AA0" transform="translate(284.875,35.4765625)"/>
<path d="M0 0 C7.57545746 5.43093457 12.44049316 12.93729169 17.70214844 20.49316406 C20.22393424 24.09151182 22.80041625 27.65026882 25.375 31.2109375 C25.91979004 31.96544189 26.46458008 32.71994629 27.02587891 33.49731445 C31.60197631 39.82458508 36.23362764 46.11001365 40.8737793 52.39038086 C46.05899412 59.41581443 51.18128418 66.48563626 56.28515625 73.5703125 C56.76654053 74.23498535 57.2479248 74.8996582 57.74389648 75.58447266 C58.64293224 76.84665084 59.52382186 78.12201858 60.38305664 79.41162109 C63.20444545 83.59593685 66.36800342 86.649126 70.4375 89.6484375 C71.67566098 90.58959309 72.91258903 91.53237236 74.1484375 92.4765625 C74.79393555 92.96705078 75.43943359 93.45753906 76.10449219 93.96289062 C80.32212378 97.22039439 84.41801692 100.63145368 88.53051758 104.02001953 C91.63006315 106.55771034 94.74667832 108.99179274 98.03515625 111.28125 C101.125 113.5234375 101.125 113.5234375 102.125 115.5234375 C102.49919744 120.30303742 101.56003768 123.62164303 99.71875 128.015625 C99.22246094 129.21445313 98.72617187 130.41328125 98.21484375 131.6484375 C97.68512493 132.8985346 97.15517412 134.14853342 96.625 135.3984375 C96.09408331 136.67147141 95.56412551 137.94490567 95.03515625 139.21875 C93.74114429 142.32437871 92.43750717 145.42559056 91.125 148.5234375 C92.0735083 148.50579346 93.0220166 148.48814941 93.99926758 148.4699707 C98.09798584 148.54008078 99.61895568 149.53999293 102.47819519 152.34509277 C104.46092675 154.96779147 104.97045449 156.99746402 105.6496582 160.20898438 C105.89479156 161.3680127 106.13992493 162.52704102 106.39248657 163.72119141 C107.71518425 170.58689775 108.90210929 177.46953184 110.04296875 184.3671875 C110.30748819 185.95092645 110.57224807 187.53462525 110.8372345 189.11828613 C111.38687647 192.4088297 111.93363427 195.69983542 112.47827148 198.99121094 C113.17544058 203.20290295 113.87997006 207.41332551 114.58661938 211.62343597 C115.13258882 214.88118222 115.67469361 218.13956244 116.21563148 221.39814758 C116.47399331 222.95164304 116.73355014 224.50494027 116.99434471 226.05802917 C117.35717719 228.22230041 117.71478694 230.38737256 118.07104492 232.55273438 C118.27517502 233.78149292 118.47930511 235.01025146 118.68962097 236.27624512 C119.06588227 239.08251908 119.21512475 241.69906922 119.125 244.5234375 C113.89856492 245.99264647 108.66870337 247.44822939 103.43359375 248.88623047 C101.44307554 249.43564381 99.45560472 249.99607612 97.46875 250.55859375 C96.4478125 250.83574219 95.426875 251.11289062 94.375 251.3984375 C93.49328125 251.64335937 92.6115625 251.88828125 91.703125 252.140625 C86.00959201 252.98602838 82.33130406 251.35692251 77.81640625 248.125 C77.21699219 247.67898438 76.61757813 247.23296875 76 246.7734375 C75.08927734 246.12761719 75.08927734 246.12761719 74.16015625 245.46875 C67.90779033 240.91909811 64.13280458 236.02020424 62.125 228.5234375 C60.98917054 219.92358586 65.25350567 212.0868162 69.125 204.6484375 C75.53196448 192.19135214 77.24864616 180.00066685 77.64257812 166.22265625 C77.82922161 161.29949414 78.22267076 157.14448018 80.125 152.5234375 C77.10480897 150.2933996 74.08372992 148.06456768 71.0625 145.8359375 C70.21494141 145.21009766 69.36738281 144.58425781 68.49414062 143.93945312 C67.65947266 143.32392578 66.82480469 142.70839844 65.96484375 142.07421875 C65.13726562 141.46006104 64.3096875 140.84590332 63.45703125 140.21313477 C62.05630998 139.19822774 60.63654599 138.20789572 59.18359375 137.26928711 C53.97660001 133.88779215 50.79064937 129.50414808 47.25 124.4609375 C46.03166263 122.76532844 44.81291218 121.07001611 43.59375 119.375 C43.0059375 118.55032227 42.418125 117.72564453 41.8125 116.87597656 C39.50555702 113.65987376 37.13633627 110.49334211 34.75 107.3359375 C34.04101562 106.39363281 33.33203125 105.45132813 32.6015625 104.48046875 C32.11429688 103.83464844 31.62703125 103.18882812 31.125 102.5234375 C23.83620728 105.87628215 20.4528055 110.76524523 16.97265625 117.87890625 C15.92345816 121.15221089 15.8599702 123.96412763 15.875 127.3984375 C15.86984375 128.57148438 15.8646875 129.74453125 15.859375 130.953125 C15.99631493 134.52599403 15.99631493 134.52599403 17.1171875 137.83203125 C20.9902287 152.01817052 18.40436254 167.16779443 11.3125 179.7734375 C3.18031188 192.4167648 -7.2987577 199.37269505 -21.5090332 204.06274414 C-24.97001713 204.73665567 -28.41082792 204.64541999 -31.921875 204.62109375 C-32.69307678 204.6196788 -33.46427856 204.61826385 -34.2588501 204.61680603 C-36.71427338 204.61122284 -39.16960442 204.59867345 -41.625 204.5859375 C-43.29296743 204.58092033 -44.96093629 204.5763578 -46.62890625 204.57226562 C-50.71097287 204.56125891 -54.79297081 204.54400586 -58.875 204.5234375 C-59.019375 205.6578125 -59.16375 206.7921875 -59.3125 207.9609375 C-59.875 211.5234375 -59.875 211.5234375 -60.875 212.5234375 C-65.12775351 212.76812561 -69.38672746 212.75207349 -73.64575195 212.76367188 C-75.77271454 212.77325819 -77.89866016 212.80420635 -80.02539062 212.8359375 C-91.81469381 212.92912638 -101.63414543 211.34535087 -110.875 203.5234375 C-118.58201047 195.54178968 -121.47793989 185.7733271 -121.828125 174.90625 C-121.86041199 173.92784149 -121.89269897 172.94943298 -121.92596436 171.94137573 C-121.98089234 169.88616387 -122.02397321 167.83060383 -122.05566406 165.77490234 C-122.10183311 163.69306868 -122.18381408 161.61171755 -122.30175781 159.53271484 C-123.25055385 142.7538665 -123.25055385 142.7538665 -119.33666992 137.43151855 C-115.59743769 133.79192556 -111.3710611 131.2052576 -106.84645081 128.65811157 C-103.68754335 126.83999348 -101.40714264 125.19808167 -98.875 122.5234375 C-98.22048667 119.65909324 -97.96155041 117.63027839 -97.97265625 114.765625 C-97.95980087 114.02192657 -97.9469455 113.27822815 -97.93370056 112.51199341 C-97.91651923 110.94038003 -97.91493508 109.36852817 -97.92797852 107.796875 C-97.93740332 105.42279111 -97.86735438 103.0601776 -97.79101562 100.6875 C-97.69461587 92.83272826 -98.04060825 87.51518022 -103.24609375 81.21875 C-104.03814209 80.41711426 -104.83019043 79.61547852 -105.64624023 78.78955078 C-109.08912886 75.28896011 -110.71322244 72.60567362 -111.44140625 67.734375 C-111.20210801 61.62152292 -106.81199933 57.52742006 -103.05273438 53.0546875 C-99.77649074 48.95390799 -99.77649074 48.95390799 -98.86767578 43.93261719 C-99.20864048 41.32079636 -99.20864048 41.32079636 -99.83813477 38.89599609 C-99.875 36.5234375 -99.875 36.5234375 -98.63598633 33.9387207 C-94.41078407 30.24255606 -89.69463828 29.43161229 -84.3203125 28.10546875 C-81.9905752 27.48488736 -79.66115758 26.86310488 -77.33203125 26.24023438 C-73.66661436 25.28178701 -69.99901049 24.33568871 -66.32470703 23.41186523 C-62.77160916 22.51057882 -59.23403759 21.5614041 -55.6953125 20.60546875 C-54.60139191 20.34466019 -53.50747131 20.08385162 -52.38040161 19.81513977 C-46.5559262 18.20889866 -43.50395734 16.82521966 -40.38232422 11.5144043 C-39.77552322 10.24598946 -39.77552322 10.24598946 -39.15646362 8.95195007 C-36.40095056 3.7299539 -30.67132759 -1.0068295 -25.109375 -3.03515625 C-16.4027162 -4.75517801 -7.72541147 -4.59966933 0 0 Z " fill="#EFB68E" transform="translate(284.875,35.4765625)"/>
<path d="M0 0 C0.0093457 1.31081543 0.01869141 2.62163086 0.02832031 3.97216797 C0.06844224 8.87403311 0.13426177 13.7752852 0.20751953 18.67675781 C0.23560097 20.79093501 0.25687876 22.90521469 0.27099609 25.01953125 C0.29260398 28.07344551 0.33934483 31.12614405 0.390625 34.1796875 C0.39185364 35.11239471 0.39308228 36.04510193 0.39434814 37.006073 C0.60874687 46.79362655 3.9706935 56.00073327 11 63 C21.60392635 71.00632023 32.26518396 71.3475908 45 71.625 C46.45705282 71.66324966 47.91408471 71.70230527 49.37109375 71.7421875 C52.91386926 71.83742506 56.4568043 71.92172897 60 72 C58.47721847 81.11059086 56.3387133 90.00625002 54.03515625 98.94726562 C51.40701477 109.51809086 50.84053962 118.99873258 56 129 C59.81567842 134.93279591 64.16362322 140.49107614 68.55126953 146.00805664 C69.95392314 147.93664626 71.00238634 149.8387054 72 152 C63.05241616 158.76554364 54.04944118 165.44132472 44.94165039 171.98974609 C39.2869391 176.05939253 33.66754473 180.17475609 28.0625 184.3125 C27.26682617 184.89902344 26.47115234 185.48554688 25.65136719 186.08984375 C22.23871603 188.60608423 18.82893514 191.12583479 15.4296875 193.66015625 C14.44226563 194.39105469 13.45484375 195.12195313 12.4375 195.875 C11.61121094 196.49117187 10.78492188 197.10734375 9.93359375 197.7421875 C8 199 8 199 6 199 C12.54717468 207.80531085 19.42165976 216.06450676 27 224 C27.76183594 224.80308594 28.52367187 225.60617187 29.30859375 226.43359375 C34.83240149 232.11494324 40.7982896 237.07916574 47 242 C48.04919712 242.86204125 49.09734435 243.72536164 50.14453125 244.58984375 C61.04972328 253.49236987 72.92107654 260.806114 85 268 C83.5327233 272.49227867 80.0841739 274.02298486 76.125 276.0625 C75.45170654 276.41320557 74.77841309 276.76391113 74.0847168 277.12524414 C66.13407344 281.12453336 58.50345167 282.9272552 49.625 283.375 C44.19727295 283.72040081 41.94320393 285.14641434 38 289 C28.54753767 295.09435071 17.90743854 295.30940437 6.984375 295.30078125 C5.769776 295.30506638 4.555177 295.3093515 3.30377197 295.31376648 C0.75232565 295.31947916 -1.79913695 295.3200328 -4.35058594 295.31567383 C-8.25223324 295.31249818 -12.15313284 295.33606661 -16.0546875 295.36132812 C-18.54166571 295.36359986 -21.02864596 295.3643052 -23.515625 295.36328125 C-24.67821838 295.372491 -25.84081177 295.38170074 -27.03863525 295.39118958 C-34.11225409 295.35070924 -38.79942322 294.7680664 -44.3125 290 C-47.47709384 286.24937026 -47.08889412 282.71138836 -47 278 C-47.59683594 277.86464844 -48.19367188 277.72929687 -48.80859375 277.58984375 C-67.53701121 272.94252471 -92.17179954 263.13393734 -104.125 247.3125 C-108.56001762 239.4773022 -109.00249526 231.85389623 -108 223 C-105.34171983 214.76973754 -100.62622266 207.22762531 -92.99751377 202.85122299 C-87.42463173 200.24454298 -82.83445651 199.41607024 -76.71655273 199.45410156 C-75.83741714 199.44376389 -74.95828156 199.43342621 -74.05250549 199.42277527 C-71.17934357 199.39354375 -68.30689212 199.39185228 -65.43359375 199.390625 C-63.42862114 199.37563007 -61.42366082 199.35890017 -59.41871643 199.34051514 C-54.16628424 199.29697698 -48.91401866 199.27687255 -43.66143799 199.26177979 C-38.29177047 199.24215983 -32.92228159 199.20019535 -27.55273438 199.16015625 C-17.03521153 199.08500078 -6.51772896 199.0346206 4 199 C3.31410797 197.97891144 2.62821594 196.95782288 1.92153931 195.90579224 C1.01222575 194.54809025 0.10299984 193.19032958 -0.80615234 191.83251953 C-1.25711777 191.16166824 -1.70808319 190.49081696 -2.17271423 189.79963684 C-5.62427054 184.63914357 -8.78033599 179.39699484 -11.625 173.875 C-12.08028076 172.99303955 -12.53556152 172.1110791 -13.00463867 171.20239258 C-22.1227854 153.14067807 -28.6711468 133.61202013 -31.71875 113.5703125 C-33.02128354 105.18953749 -35.38117354 100.44403583 -40.77734375 93.8984375 C-47.79481926 84.74735344 -51.24073684 71.48173932 -50 60 C-47.3085841 41.56719364 -39.30002049 29.12628184 -24.45776367 18.05273438 C-23.2985563 17.19577586 -22.13894806 16.33935941 -20.97900391 15.48339844 C-16.19662206 11.89867699 -11.5253645 8.16519504 -6.82836914 4.46972656 C-6.08578857 3.88932617 -5.34320801 3.30892578 -4.578125 2.7109375 C-3.91200195 2.18806152 -3.24587891 1.66518555 -2.55957031 1.12646484 C-1 0 -1 0 0 0 Z " fill="#E57C90" transform="translate(164,176)"/>
<path d="M0 0 C3.22745524 1.41901662 5.37258107 3.12855765 7.85058594 5.62353516 C8.59105164 6.36415192 9.33151733 7.10476868 10.09442139 7.86782837 C10.88310608 8.66683563 11.67179077 9.4658429 12.484375 10.2890625 C13.29996887 11.10748627 14.11556274 11.92591003 14.95587158 12.76913452 C17.55864562 15.38309973 20.15437762 18.00393505 22.75 20.625 C24.5138634 22.39889454 26.2781809 24.17233766 28.04296875 25.9453125 C32.36726136 30.29165142 36.6857933 34.64365081 41 39 C38.8906846 41.15434918 36.87098931 43.09710482 34.45703125 44.9140625 C29.16860655 49.40375851 26.38868091 55.83985524 25.55078125 62.65234375 C25.48417026 67.4534589 25.59100229 71.66837954 27.0078125 76.28125 C30.80688933 90.52030963 28.30522168 105.59839284 21.1875 118.25 C13.05531188 130.8933273 2.5762423 137.84925755 -11.6340332 142.53930664 C-15.09501713 143.21321817 -18.53582792 143.12198249 -22.046875 143.09765625 C-22.81807678 143.0962413 -23.58927856 143.09482635 -24.3838501 143.09336853 C-26.83927338 143.08778534 -29.29460442 143.07523595 -31.75 143.0625 C-33.41796743 143.05748283 -35.08593629 143.0529203 -36.75390625 143.04882812 C-40.83597287 143.03782141 -44.91797081 143.02056836 -49 143 C-48.16841351 135.6070991 -46.61066597 128.49230695 -44.83618164 121.27392578 C-44.31624786 119.14037933 -43.81926417 117.00226857 -43.32226562 114.86328125 C-41.58328557 107.63469937 -39.52642418 101.36208643 -35.38061523 95.09326172 C-28.24517389 84.27464561 -23.52097431 67.90759141 -24.1328125 54.984375 C-24.88033598 36.52709026 -15.88635056 23.81904562 -6 9 C-5.37657715 8.05850098 -4.7531543 7.11700195 -4.11083984 6.14697266 C-2.74724479 4.09336564 -1.37781639 2.04407968 0 0 Z " fill="#7A4922" transform="translate(275,97)"/>
<path d="M0 0 C0.01401855 1.96622314 0.01401855 1.96622314 0.02832031 3.97216797 C0.06844224 8.87403311 0.13426177 13.7752852 0.20751953 18.67675781 C0.23560097 20.79093501 0.25687876 22.90521469 0.27099609 25.01953125 C0.29260398 28.07344551 0.33934483 31.12614405 0.390625 34.1796875 C0.39185364 35.11239471 0.39308228 36.04510193 0.39434814 37.006073 C0.60874687 46.79362655 3.9706935 56.00073327 11 63 C21.60392635 71.00632023 32.26518396 71.3475908 45 71.625 C46.45705282 71.66324966 47.91408471 71.70230527 49.37109375 71.7421875 C52.91386926 71.83742506 56.4568043 71.92172897 60 72 C58.75295853 79.25844321 57.2823468 86.41690964 55.5 93.5625 C55.18095703 94.8937793 55.18095703 94.8937793 54.85546875 96.25195312 C54.54029297 97.52135742 54.54029297 97.52135742 54.21875 98.81640625 C54.03248047 99.57381104 53.84621094 100.33121582 53.65429688 101.11157227 C53 103 53 103 51 105 C48.65027093 105.58395523 46.35645509 106.06138743 43.9765625 106.48046875 C42.8946035 106.68098091 42.8946035 106.68098091 41.79078674 106.88554382 C39.40343001 107.32659123 37.01426816 107.75693887 34.625 108.1875 C32.11837098 108.64781977 29.61226528 109.11091678 27.10618591 109.57421875 C25.37340699 109.89443123 23.64046338 110.21375365 21.90736389 110.53222656 C15.86947223 111.6440884 9.84071347 112.79730375 3.81640625 113.98046875 C3.00177917 114.14034775 2.1871521 114.30022675 1.34783936 114.46495056 C-1.80854338 115.08532376 -4.96466741 115.70695616 -8.12005615 116.33236694 C-10.29442584 116.76298921 -12.46942277 117.1903152 -14.64453125 117.6171875 C-15.87534424 117.86065918 -17.10615723 118.10413086 -18.37426758 118.35498047 C-22.24477385 119.04354539 -26.09598801 119.54393516 -30 120 C-31.92042755 113.69002375 -31.92042755 113.69002375 -32.26171875 110.73046875 C-33.14769454 103.60814389 -36.3320029 99.61176565 -40.7421875 94.07421875 C-48.49665485 83.51580041 -51.41367899 69.68191911 -49.53515625 56.81640625 C-46.01982068 37.82527383 -36.13721384 26.66914048 -20.97900391 15.48339844 C-16.19662206 11.89867699 -11.5253645 8.16519504 -6.82836914 4.46972656 C-6.08578857 3.88932617 -5.34320801 3.30892578 -4.578125 2.7109375 C-3.91200195 2.18806152 -3.24587891 1.66518555 -2.55957031 1.12646484 C-1 0 -1 0 0 0 Z " fill="#FE8AA0" transform="translate(164,176)"/>
<path d="M0 0 C0.79072166 2.75847173 0.97350812 4.48568438 0.8125 7.4375 C0.89087147 21.70110722 9.07573288 31.35100565 17.55126953 42.00805664 C18.95392314 43.93664626 20.00238634 45.8387054 21 48 C12.05115983 54.76649359 3.04819887 61.44515204 -6.06274414 67.99194336 C-11.67998787 72.03277554 -17.25196541 76.13157966 -22.8125 80.25 C-30.10984174 85.65036072 -37.48800599 90.90209383 -45 96 C-49.64741817 91.8198725 -52.6491066 87.11254935 -55.8125 81.75 C-56.33730957 80.86538086 -56.86211914 79.98076172 -57.40283203 79.06933594 C-67.65728033 61.52709555 -81 36.83658557 -81 16 C-54.13914095 9.96612694 -27.07604056 4.95800669 0 0 Z " fill="#F0B68F" transform="translate(215,280)"/>
<path d="M0 0 C4.23340644 3.58919241 7.3588698 6.40410323 8.3203125 12.0546875 C8.58069397 18.32120153 7.62066809 23.3424608 3.875 28.4375 C-5.49877071 37.81127071 -16.84948969 39.63029349 -29.64215088 39.74104309 C-30.79664734 39.74013168 -31.9511438 39.73922028 -33.140625 39.73828125 C-34.355224 39.74256638 -35.569823 39.7468515 -36.82122803 39.75126648 C-39.37267435 39.75697916 -41.92413695 39.7575328 -44.47558594 39.75317383 C-48.37723324 39.74999818 -52.27813284 39.77356661 -56.1796875 39.79882812 C-58.66666571 39.80109986 -61.15364596 39.8018052 -63.640625 39.80078125 C-64.80321838 39.809991 -65.96581177 39.81920074 -67.16363525 39.82868958 C-74.23725409 39.78820924 -78.92442322 39.2055664 -84.4375 34.4375 C-87.57938055 30.71378972 -87.48016412 27.13849182 -87.125 22.4375 C-83.21581822 13.61065072 -77.63467882 5.96904176 -68.43994141 2.39331055 C-64.83541937 1.35400404 -61.77836844 1.15115435 -58.03125 1.09375 C-57.02837952 1.0718158 -57.02837952 1.0718158 -56.00524902 1.04943848 C-53.8785601 1.00330559 -51.75195292 0.96897813 -49.625 0.9375 C-40.32784867 0.79709228 -31.3718739 0.33722164 -22.16162109 -1.10839844 C-15.1185515 -2.16163123 -6.5373683 -3.30413626 0 0 Z " fill="#EFB68F" transform="translate(204.125,431.5625)"/>
<path d="M0 0 C0.495 0.99 0.495 0.99 1 2 C0.02368579 4.42945089 -1.0181377 6.73692486 -2.1640625 9.0859375 C-2.50749191 9.80606018 -2.85092133 10.52618286 -3.20475769 11.26812744 C-4.33783162 13.64050939 -5.48156538 16.00759677 -6.625 18.375 C-7.41199095 20.01957027 -8.19803532 21.66459383 -8.9831543 23.31005859 C-10.1762131 25.81035682 -11.36975948 28.31040507 -12.56614685 30.80911255 C-16.03569649 38.05649723 -19.43754391 45.33310495 -22.8125 52.625 C-23.33110596 53.73979736 -23.84971191 54.85459473 -24.3840332 56.00317383 C-27.02617046 61.69147154 -29.63063152 67.39392715 -32.1875 73.12109375 C-32.71239014 74.28624512 -33.23728027 75.45139648 -33.77807617 76.65185547 C-34.76022482 78.83492892 -35.73268912 81.02240134 -36.69262695 83.21533203 C-40.39023823 91.40285238 -45.08163479 100.05203456 -52 106 C-52.66 106 -53.32 106 -54 106 C-54 105.01 -54 104.02 -54 103 C-52.33333333 101.33333333 -50.66666667 99.66666667 -49 98 C-47.16959036 95.02158656 -47.16959036 95.02158656 -45.5625 91.5625 C-45.23378906 90.88622559 -44.90507812 90.20995117 -44.56640625 89.51318359 C-43.36168498 87.01607607 -42.17901653 84.50934832 -41 82 C-40.5138623 80.96633301 -40.02772461 79.93266602 -39.52685547 78.86767578 C-36.62907501 72.69290791 -33.74840337 66.510352 -30.875 60.32421875 C-26.4496424 50.79859864 -21.97156801 41.29788776 -17.4909668 31.79815674 C-15.6166926 27.82420772 -13.74515487 23.84900183 -11.87890625 19.87127686 C-11.29025835 18.61798825 -10.70040311 17.36526604 -10.109375 16.11309814 C-9.267404 14.32831461 -8.43047283 12.54115619 -7.59375 10.75390625 C-7.11615234 9.73756104 -6.63855469 8.72121582 -6.14648438 7.67407227 C-5.18522147 5.43201252 -4.49042069 3.38087905 -4 1 C-2.68 0.67 -1.36 0.34 0 0 Z " fill="#CC9B79" transform="translate(241,52)"/>
</svg>
